<svg xmlns="http://www.w3.org/2000/svg" xmlns:xlink="http://www.w3.org/1999/xlink" width="11" height="14" viewBox="0 0 11 14">
  <defs>
    <clipPath id="clip-path">
      <rect id="長方形_9" data-name="長方形 9" width="5" height="5" transform="translate(239 46)" fill="#fff" stroke="#707070" stroke-width="1"/>
    </clipPath>
  </defs>
  <g id="グループ_3" data-name="グループ 3" transform="translate(-236 -46)">
    <path id="パス_1429" data-name="パス 1429" d="M1.913,1,1.1,10H9.9L9.087,1H1.913M1,0h9l1,11H0Z" transform="translate(236 49)" fill="#7c7973"/>
    <g id="マスクグループ_1" data-name="マスクグループ 1" clip-path="url(#clip-path)">
      <path id="長方形_8" data-name="長方形 8" d="M2.5,1A1.5,1.5,0,0,0,1,2.5v5a1.5,1.5,0,0,0,3,0v-5A1.5,1.5,0,0,0,2.5,1m0-1A2.5,2.5,0,0,1,5,2.5v5a2.5,2.5,0,0,1-5,0v-5A2.5,2.5,0,0,1,2.5,0Z" transform="translate(239 46)" fill="#7c7973"/>
    </g>
  </g>
</svg>
